<svg width="128" height="128" viewBox="0 0 128 128" fill="none" xmlns="http://www.w3.org/2000/svg">
    <path d="M47.7347 117.928C48.268 117.928 48.7054 117.885 49.0467 117.8C49.3987 117.715 49.7454 117.592 50.0867 117.432L50.4227 118.616C50.0494 118.797 49.6387 118.931 49.1907 119.016C48.7534 119.101 48.2147 119.144 47.5747 119.144C46.9134 119.144 46.2894 119.032 45.7027 118.808C45.116 118.584 44.604 118.253 44.1667 117.816C43.74 117.379 43.3987 116.84 43.1427 116.2C42.8974 115.549 42.7747 114.803 42.7747 113.96C42.7747 113.139 42.8974 112.408 43.1427 111.768C43.388 111.117 43.724 110.573 44.1507 110.136C44.588 109.688 45.1054 109.352 45.7027 109.128C46.3 108.893 46.9507 108.776 47.6547 108.776C48.316 108.776 48.86 108.829 49.2867 108.936C49.7134 109.043 50.108 109.187 50.4707 109.368L50.1187 110.52C49.916 110.435 49.724 110.36 49.5427 110.296C49.372 110.221 49.196 110.163 49.0147 110.12C48.844 110.077 48.6627 110.045 48.4707 110.024C48.2894 110.003 48.0814 109.992 47.8467 109.992C47.3774 109.992 46.9294 110.067 46.5027 110.216C46.0867 110.355 45.7187 110.584 45.3987 110.904C45.0894 111.224 44.8387 111.64 44.6467 112.152C44.4654 112.653 44.3747 113.261 44.3747 113.976C44.3747 114.701 44.4654 115.315 44.6467 115.816C44.828 116.317 45.068 116.723 45.3667 117.032C45.676 117.341 46.0334 117.571 46.4387 117.72C46.844 117.859 47.276 117.928 47.7347 117.928ZM52.1442 108.92H53.6162V114.952C53.6162 116.029 53.8135 116.797 54.2082 117.256C54.6029 117.715 55.2375 117.944 56.1122 117.944C56.9762 117.944 57.6055 117.688 58.0002 117.176C58.4055 116.664 58.6082 115.987 58.6082 115.144V108.92H60.0802V115.096C60.0802 116.472 59.7282 117.491 59.0242 118.152C58.3202 118.813 57.3495 119.144 56.1122 119.144C54.8642 119.144 53.8882 118.819 53.1842 118.168C52.4909 117.507 52.1442 116.456 52.1442 115.016V108.92ZM62.5066 108.92H65.7866C66.3092 108.92 66.7679 108.995 67.1626 109.144C67.5679 109.293 67.9039 109.501 68.1706 109.768C68.4372 110.035 68.6399 110.355 68.7786 110.728C68.9172 111.091 68.9866 111.491 68.9866 111.928C68.9866 112.312 68.9279 112.659 68.8106 112.968C68.6932 113.277 68.5386 113.549 68.3466 113.784C68.1546 114.008 67.9306 114.205 67.6746 114.376C67.4292 114.536 67.1786 114.669 66.9226 114.776L69.5786 119H67.9306L65.5466 115.048H63.8986V119H62.5066V108.92ZM63.8986 113.848H65.1146C65.4452 113.848 65.7492 113.816 66.0266 113.752C66.3146 113.677 66.5599 113.571 66.7626 113.432C66.9759 113.283 67.1412 113.091 67.2586 112.856C67.3866 112.621 67.4506 112.339 67.4506 112.008C67.4506 111.357 67.2692 110.877 66.9066 110.568C66.5546 110.259 66.0372 110.104 65.3546 110.104H63.8986V113.848ZM71.2462 108.92L73.3422 114.616C73.4915 115.011 73.6515 115.448 73.8222 115.928C74.0035 116.397 74.1689 116.835 74.3182 117.24H74.3502L75.3102 114.616L77.4382 108.92H78.9742L75.0062 119H73.5822L69.6942 108.92H71.2462ZM80.2097 108.92H86.2897V110.136H81.6817V113.16H85.8737V114.36H81.6817V117.784H86.3377V119H80.2097V108.92Z" fill="white" />
    <path d="M69.131 29H50C42.268 29 36 35.268 36 43V43C36 50.732 42.268 57 50 57H78C85.732 57 92 63.268 92 71V71C92 78.732 85.732 85 78 85H58.911" stroke="white" stroke-width="4" />
    <path d="M49.5 85C49.5 88.5899 52.4101 91.5 56 91.5C59.5899 91.5 62.5 88.5898 62.5 85C62.5 81.4101 59.5899 78.5 56 78.5C52.4101 78.5 49.5 81.4102 49.5 85Z" fill="white" stroke="#55BBF7" stroke-width="3" />
    <path d="M65.5 29C65.5 32.5899 68.4101 35.5 72 35.5C75.5899 35.5 78.5 32.5898 78.5 29C78.5 25.4101 75.5899 22.5 72 22.5C68.4101 22.5 65.5 25.4102 65.5 29Z" fill="white" stroke="#55BBF7" stroke-width="3" />
</svg>

